<?xml version="1.0" encoding="utf-8"?>
<!-- Generator: Adobe Illustrator 22.1.0, SVG Export Plug-In . SVG Version: 6.00 Build 0)  -->
<svg version="1.1" id="Layer_1" xmlns="http://www.w3.org/2000/svg" xmlns:xlink="http://www.w3.org/1999/xlink" x="0px" y="0px"
	 viewBox="0 0 119.7 30.2" style="enable-background:new 0 0 119.7 30.2;" xml:space="preserve">
<style type="text/css">
	.st0{fill:#F6A0BB;}
	.st1{fill:#F6A0BB;stroke:#F6A0BB;stroke-miterlimit:10;}
	.st2{fill:#E6E9ED;}
	.st3{fill:#FFCE54;}
	.st4{fill:#ED5564;}
	.st5{opacity:0.2;fill:#FFFFFF;enable-background:new    ;}
</style>
<title>logo</title>
<path class="st0" d="M47.5,19.7c0.4-0.1,0.6,0.1,0.6,0.7c0,0.6-0.2,0.9-0.6,0.9c-5.5,0.5-10.7,0.4-15.7-0.1
	c-0.6-0.7-0.6-1.1,0.2-1.4C37.4,20.1,42.6,20.1,47.5,19.7z M38.8,7.7c0-0.6,0.3-0.8,0.7-0.8c0.5,0,0.7,0.3,0.8,0.8v3.4l4.7,0.1
	c0.4,0.1,0.7,0.4,0.7,0.8c0,0.5-0.2,0.8-0.6,0.8l-4.8-0.1l-0.1,5.9c-0.1,0.5-0.4,0.8-0.9,0.8s-0.7-0.2-0.7-0.7l0.1-6h-4.8
	c-0.4,0-0.6-0.2-0.6-0.7c0-0.5,0.1-0.7,0.5-0.8h4.9L38.8,7.7z"/>
<path class="st0" d="M55.8,8.9c2.3,0.1,3.6,1.3,3.7,3.5c0,0.6-0.1,1.2-0.4,1.8c-0.4,0.1-0.8,0-1.1-0.1c0.2,0.2,0.2,0.5,0.1,0.8
	c-0.5,0.5-1.2,0.8-2.3,0.8c-2.4-0.2-3.6-1.3-3.6-3.4C52.2,10.1,53.5,9,55.8,8.9z M55.8,10.2c-1.4,0-2.1,0.7-2.2,2
	c0,1.4,0.7,2.1,2.1,2.1c0.7,0,1.3-0.1,1.8-0.4c0.1-0.1,0.2-0.1,0.4,0.1c0.1-0.8,0.2-1.4,0.2-1.8C58,10.9,57.2,10.3,55.8,10.2z
	 M66.3,4.5c0.4-0.6,0.9-0.6,1.5,0l0.1,1.9l2.7,0.1c0.7,0.3,0.7,0.8,0,1.4l-2.7-0.2v5.1l4.3,0.1c0.2,0.1,0.3,0.5,0.1,1.4h-4.4
	l-0.3,9.3c-0.6,0.5-1.2,0.5-1.7,0l0.5-9.4h-5.9c-0.4-0.2-0.5-0.5-0.5-0.7s0.2-0.4,0.5-0.7h5.9v-5l-4.2-0.3c-0.5-0.6-0.4-1.1,0.2-1.4
	l3.9,0.2V4.5z M62.5,16.6c0.5-0.5,0.9-0.5,1.3,0.3c-0.2,1.8-1.1,3.5-2.6,5c-1,0.1-1.3-0.3-1-0.9C61.4,19.6,62.2,18.2,62.5,16.6z
	 M69.8,17.2c0-0.6,0.5-0.7,1.3-0.4c0.2,1,1.1,2,2.8,2.9c0.2,0.7-0.1,1.1-0.9,1.2C71,19.8,70,18.5,69.8,17.2z"/>
<path class="st0" d="M77.4,10.3c0.5-0.6,1-0.5,1.4,0.3l-1,3.3c-0.4,0.2-0.7,0.3-0.9,0.2c-0.2-0.1-0.3-0.4-0.4-0.9L77.4,10.3z
	 M79.5,5.4c0.4-0.5,0.8-0.5,1.4,0l-0.1,7.3c0.6,0.3,1.5,0.8,2.5,1.5c0,0.8-0.3,1.2-0.9,1.1c-0.1-0.1-0.2-0.1-0.4-0.2
	c-0.6-0.3-1.1-0.5-1.3-0.6l-0.2,8.2c-0.5,0.6-0.9,0.6-1.4,0L79.5,5.4z M88.5,4.1c0.6-0.4,1.1-0.4,1.4,0.1v1.4h2.9
	c0.5,0.1,0.8,0.3,0.8,0.6c0,0.4-0.3,0.6-0.8,0.7h-2.9v1.9h2.9c0.6,0.4,0.5,0.9-0.2,1.3h-2.7v2.2l5.9,0.1c0.5,0.4,0.5,0.8,0.1,1.2
	l-11.2-0.1c-0.7-0.4-0.8-0.9-0.1-1.3h4v-2.1L85.8,10c-0.4-0.2-0.5-0.4-0.5-0.7c0-0.3,0.2-0.4,0.5-0.5h2.6V6.9l-3-0.1
	c-0.3-0.1-0.4-0.3-0.4-0.6c0-0.3,0.2-0.5,0.5-0.6h2.9V4.1z M86.5,16.6v0.9l4.1,0.2c0.3,0,0.4,0.2,0.4,0.6c-0.1,0.3-0.2,0.5-0.5,0.6
	l-4.1-0.1L86,22.9c-0.6,0.6-1,0.6-1.3,0l0.5-6.4C85.7,16.1,86.1,16.1,86.5,16.6z M86.9,20.7c1.4,0.1,2.7,0.1,4,0
	c0.4,0,0.5,0.2,0.5,0.5c0,0.4-0.2,0.6-0.5,0.7c-1.4,0.1-2.7,0.1-4,0C86.5,21.4,86.5,21,86.9,20.7z M87.9,14.7
	c2.6-0.3,4.4,0.1,5.4,1.2c0.9,1.1,1.4,3.6,1.3,7.6c-0.1,0.4-0.4,0.6-0.7,0.6s-0.5-0.2-0.5-0.7c0.1-3.3-0.2-5.5-0.8-6.5
	c-0.6-1-2.2-1.3-4.8-1.1c-0.4,0-0.5-0.2-0.5-0.6S87.4,14.7,87.9,14.7z"/>
<path class="st0" d="M100,12.3h2.3c1.5,0.2,2.4,1,2.8,2.6V17c-0.7,2-0.7,3.4,0,4.4c0,0.9-0.4,1.2-1.1,1c-1-1.3-1.1-3.2-0.2-5.8v-1.3
	c-0.3-1.1-0.9-1.6-1.6-1.6H100C99.4,13.4,99.4,12.9,100,12.3z M102.9,5.6c0.3,0.4,0.9,1.5,1.9,3.3c0.1,0.6,0,0.9-0.2,1.1
	c-0.2,0.2-0.4,0.2-0.8,0c-1.2-1.8-1.8-3-2-3.5C101.7,5.7,102.1,5.4,102.9,5.6z M111.7,9.9c0.3-0.5,0.8-0.5,1.4-0.2l0.1,2.3l5.1,0.1
	c0.5,0.2,0.5,0.7,0.1,1.5c-1.7-0.1-3.4-0.1-5.1-0.1v2c1.1,0.2,1.9,0.6,2.7,1.4c0.7,0.8,0.9,2.3,0.6,4.3c-0.5,0.3-1,0.2-1.4-0.1
	c0.2-1.4,0-2.5-0.7-3.3c-0.7-0.8-1.5-1-2.3-0.6c-0.9,0.3-1.5,0.9-1.7,1.9c-0.2,1,0.1,1.7,0.9,2.2s1.9,0.5,3.2-0.1
	c0.5,0.2,0.6,0.5,0.6,1.1c-0.8,0.7-2,0.9-3.7,0.6c-1.7-0.3-2.6-1.4-2.5-3.3c0-1.9,1-3.2,2.8-4v-2.2l-4.9-0.1c-0.6-0.5-0.7-1-0.1-1.5
	c1.7,0.2,3.3,0.2,5,0.1V9.9z M107.5,6.8c-0.5-0.5-0.6-1-0.1-1.5c3.8-0.2,6.3,0,7.7,0.6c0,0.5-0.2,0.9-0.5,1.2
	C112.2,6.8,109.8,6.7,107.5,6.8z"/>
<path class="st1" d="M47.5,19.4c0.4-0.1,0.6,0.1,0.6,0.7c0,0.6-0.2,0.9-0.6,0.9c-5.5,0.5-10.7,0.4-15.7-0.1
	c-0.6-0.7-0.6-1.1,0.2-1.4C37.5,19.9,42.7,19.8,47.5,19.4z M38.9,7.5c0-0.6,0.3-0.8,0.7-0.8c0.5,0,0.7,0.3,0.8,0.8v3.4l4.7,0.1
	c0.4,0.1,0.7,0.4,0.7,0.8c0,0.5-0.2,0.8-0.6,0.8l-4.8-0.1l-0.1,5.9c-0.1,0.5-0.4,0.8-0.9,0.8s-0.7-0.2-0.7-0.7l0.1-6H34
	c-0.4,0-0.6-0.2-0.6-0.7c0-0.5,0.1-0.7,0.5-0.8h4.9L38.9,7.5z"/>
<path class="st1" d="M55.9,8.6c2.3,0.1,3.6,1.3,3.7,3.5c0,0.6-0.1,1.2-0.4,1.8c-0.4,0.1-0.8,0-1.1-0.1c0.2,0.2,0.2,0.5,0.1,0.8
	c-0.5,0.5-1.2,0.8-2.3,0.8c-2.4-0.2-3.6-1.3-3.6-3.4C52.3,9.8,53.5,8.7,55.9,8.6z M55.9,9.9c-1.4,0-2.1,0.7-2.2,2
	c0,1.4,0.7,2.1,2.1,2.1c0.7,0,1.3-0.1,1.8-0.4c0.1-0.1,0.2-0.1,0.4,0.1c0.1-0.8,0.2-1.4,0.2-1.8C58.1,10.6,57.3,10,55.9,9.9z
	 M66.4,4.2c0.4-0.6,0.9-0.6,1.5,0L68,6.1l2.7,0.1c0.7,0.3,0.7,0.8,0,1.4L68,7.5v5.1l4.3,0.1c0.2,0.1,0.3,0.5,0.1,1.4H68l-0.3,9.3
	c-0.6,0.5-1.2,0.5-1.7,0l0.5-9.4h-5.9c-0.4-0.2-0.5-0.5-0.5-0.7s0.2-0.4,0.5-0.7h5.9v-5l-4.2-0.3c-0.5-0.6-0.4-1.1,0.2-1.4l3.9,0.2
	V4.2z M62.6,16.3c0.5-0.5,0.9-0.5,1.3,0.3c-0.2,1.8-1.1,3.5-2.6,5c-1,0.1-1.3-0.3-1-0.9C61.5,19.3,62.3,17.9,62.6,16.3z M69.9,16.9
	c0-0.6,0.5-0.7,1.3-0.4c0.2,1,1.1,2,2.8,2.9c0.2,0.7-0.1,1.1-0.9,1.2C71.1,19.5,70.1,18.3,69.9,16.9z"/>
<path class="st1" d="M77.4,10c0.5-0.6,1-0.5,1.4,0.3l-1,3.3c-0.4,0.2-0.7,0.3-0.9,0.2c-0.2-0.1-0.3-0.4-0.4-0.9L77.4,10z M79.6,5.1
	c0.4-0.5,0.8-0.5,1.4,0l-0.1,7.3c0.6,0.3,1.5,0.8,2.5,1.5c0,0.8-0.3,1.2-0.9,1.1c-0.1-0.1-0.2-0.1-0.4-0.2c-0.6-0.3-1.1-0.5-1.3-0.6
	l-0.2,8.2c-0.5,0.6-0.9,0.6-1.4,0L79.6,5.1z M88.5,3.8c0.6-0.4,1.1-0.4,1.4,0.1v1.4h2.9c0.5,0.1,0.8,0.3,0.8,0.6
	c0,0.4-0.3,0.6-0.8,0.7H90v1.9h2.9c0.6,0.4,0.5,0.9-0.2,1.3H90v2.2l5.9,0.1c0.5,0.4,0.5,0.8,0.1,1.2l-11.2-0.1
	c-0.7-0.4-0.8-0.9-0.1-1.3h4V9.8l-2.6-0.1c-0.4-0.2-0.5-0.4-0.5-0.7c0-0.3,0.2-0.4,0.5-0.5h2.6V6.6l-3-0.1c-0.3-0.1-0.4-0.3-0.4-0.6
	c0-0.3,0.2-0.5,0.5-0.6h2.9V3.8z M86.6,16.3v0.9l4.1,0.2c0.3,0,0.4,0.2,0.4,0.6c-0.1,0.3-0.2,0.5-0.5,0.6l-4.1-0.1l-0.4,4.1
	c-0.6,0.6-1,0.6-1.3,0l0.5-6.4C85.8,15.8,86.2,15.8,86.6,16.3z M87,20.4c1.4,0.1,2.7,0.1,4,0c0.4,0,0.5,0.2,0.5,0.5
	c0,0.4-0.2,0.6-0.5,0.7c-1.4,0.1-2.7,0.1-4,0C86.6,21.1,86.6,20.7,87,20.4z M88,14.4c2.6-0.3,4.4,0.1,5.4,1.2
	c0.9,1.1,1.4,3.6,1.3,7.6c-0.1,0.4-0.4,0.6-0.7,0.6s-0.5-0.2-0.5-0.7c0.1-3.3-0.2-5.5-0.8-6.5c-0.6-1-2.2-1.3-4.8-1.1
	c-0.4,0-0.5-0.2-0.5-0.6S87.5,14.4,88,14.4z"/>
<path class="st1" d="M100.1,12.1h2.3c1.5,0.2,2.4,1,2.8,2.6v2.1c-0.7,2-0.7,3.4,0,4.4c0,0.9-0.4,1.2-1.1,1c-1-1.3-1.1-3.2-0.2-5.8
	v-1.3c-0.3-1.1-0.9-1.6-1.6-1.6h-2.2C99.5,13.1,99.5,12.7,100.1,12.1z M103,5.3c0.3,0.4,0.9,1.5,1.9,3.3c0.1,0.6,0,0.9-0.2,1.1
	c-0.2,0.2-0.4,0.2-0.8,0c-1.2-1.8-1.8-3-2-3.5C101.8,5.4,102.2,5.1,103,5.3z M111.8,9.6c0.3-0.5,0.8-0.5,1.4-0.2l0.1,2.3l5.1,0.1
	c0.5,0.2,0.5,0.7,0.1,1.5c-1.7-0.1-3.4-0.1-5.1-0.1v2c1.1,0.2,1.9,0.6,2.7,1.4c0.7,0.8,0.9,2.3,0.6,4.3c-0.5,0.3-1,0.2-1.4-0.1
	c0.2-1.4,0-2.5-0.7-3.3c-0.7-0.8-1.5-1-2.3-0.6c-0.9,0.3-1.5,0.9-1.7,1.9c-0.2,1,0.1,1.7,0.9,2.2s1.9,0.5,3.2-0.1
	c0.5,0.2,0.6,0.5,0.6,1.1c-0.8,0.7-2,0.9-3.7,0.6c-1.7-0.3-2.6-1.4-2.5-3.3c0-1.9,1-3.2,2.8-4v-2.2l-4.9-0.1c-0.6-0.5-0.7-1-0.1-1.5
	c1.7,0.2,3.3,0.2,5,0.1V9.6z M107.6,6.5c-0.5-0.5-0.6-1-0.1-1.5c3.8-0.2,6.3,0,7.7,0.6c0,0.5-0.2,0.9-0.5,1.2
	C112.3,6.5,109.9,6.4,107.6,6.5z"/>
<path class="st2" d="M7.4,6L7,7.7L6.4,8.2L4.7,8.6L1.4,5.3L4,2.6L7.4,6z"/>
<path class="st3" d="M8.1,8.7L2.7,3.3C2.5,3.1,2.2,3.1,2,3.3C1.8,3.5,1.8,3.8,2,3.9l5.4,5.4c0.1,0.1,0.2,0.1,0.3,0.1
	c0.1,0,0.2,0,0.3-0.1C8.3,9.2,8.3,8.9,8.1,8.7z"/>
<path class="st4" d="M18.8,7c-1.4,0-2.7,0.6-3.7,1.5c-0.9-1-2.2-1.5-3.7-1.5c-2.8,0-5.2,2.3-5.2,5.2c0,5.9,8.8,11,8.8,11
	s8.8-5.2,8.8-11C23.9,9.3,21.6,7,18.8,7z"/>
<path class="st5" d="M18.8,7c-0.2,0-0.3,0-0.5,0c2.6,0.2,4.7,2.4,4.7,5.1c0,5.1-6.5,9.6-8.4,10.7c0.3,0.2,0.5,0.3,0.5,0.3
	s8.8-5.2,8.8-11C23.9,9.3,21.6,7,18.8,7z"/>
<path class="st3" d="M21.8,23.5c-0.1,0-0.2,0-0.3-0.1L17.1,19c-0.2-0.2-0.2-0.5,0-0.7c0.2-0.2,0.5-0.2,0.7,0c0,0,0,0,0,0l4.4,4.4
	c0.2,0.2,0.2,0.5,0,0.7C22,23.4,21.9,23.5,21.8,23.5L21.8,23.5z"/>
<path class="st4" d="M23.5,22.2c-0.2-0.2-0.6-0.4-0.9-0.4c-0.3,0-0.7,0.1-0.9,0.4c-0.1,0.1-0.2,0.3-0.3,0.5
	c-0.2,0.1-0.4,0.2-0.5,0.3c-0.5,0.5-0.5,1.3,0,1.8c0.3,0.3,0.8,0.5,1.5,0.5c0.6,0,1.1-0.1,1.1-0.1l0.3-0.1l0.1-0.3
	c0,0,0.1-0.4,0.1-0.9C24,23.1,23.9,22.5,23.5,22.2z"/>
</svg>
