<?xml version="1.0" encoding="utf-8"?>
<!-- Generator: Adobe Illustrator 22.1.0, SVG Export Plug-In . SVG Version: 6.00 Build 0)  -->
<svg version="1.1" id="Layer_1" xmlns="http://www.w3.org/2000/svg" xmlns:xlink="http://www.w3.org/1999/xlink" x="0px" y="0px"
	 viewBox="0 0 200 200" style="enable-background:new 0 0 200 200;" xml:space="preserve">
<style type="text/css">
	.st0{fill:#FFFFFF;}
</style>
<path class="st0" d="M183.7,49C155.5,2.8,95.2-11.8,49,16.3S-11.8,104.8,16.3,151s88.5,60.8,134.7,32.6
	c20.2-12.3,35.3-31.6,42.4-54.2c1.4-4.3-1-8.9-5.3-10.2c-4.3-1.4-8.9,1-10.2,5.3l0,0c-13.6,43-59.6,66.8-102.6,53.2
	c-33.9-10.7-56.9-42.2-57-77.7c0-45.1,36.6-81.7,81.7-81.7c28.5,0,54.9,14.8,69.7,39.2c2.4,3.9,7.4,5.1,11.2,2.7
	C184.8,57.9,186,52.8,183.7,49z"/>
<path class="st0" d="M181.7,59.2V18.3c0-4.5,3.7-8.2,8.2-8.2s8.2,3.7,8.2,8.2v49c0,4.5-3.7,8.2-8.2,8.2l0,0h-49
	c-4.5,0-8.2-3.7-8.2-8.2c0-4.5,3.7-8.2,8.2-8.2C140.8,59.2,181.7,59.2,181.7,59.2z"/>
</svg>
